<svg xmlns="http://www.w3.org/2000/svg" viewBox="0 0 345 59" width="345" height="59" preserveAspectRatio="xMidYMid meet" style="width: 100%; height: 100%; transform: translate3d(0px, 0px, 0px);">
  <defs>
    <clipPath id="__lottie_element_82">
      <rect width="345" height="59" x="0" y="0"></rect>
    </clipPath>
    <mask id="__lottie_element_83" mask-type="alpha">
      <g transform="matrix(1.25,0,0,1.2553199529647827,0,-0.16601943969726562)" opacity="1" style="display: block;">
        <g opacity="1" transform="matrix(1,0,0,1,138,23.4060001373291)">
          <path fill="rgb(251,251,251)" fill-opacity="1" d=" M-133.20899963378906,-23.4060001373291 C-135.85499572753906,-23.4060001373291 -138,-21.257999420166016 -138,-18.608999252319336 C-138,-18.608999252319336 -138,12.449000358581543 -138,12.449000358581543 C-138,12.449000358581543 -68.86699676513672,23.4060001373291 0.09200000017881393,23.4060001373291 C69.0510025024414,23.4060001373291 138,12.449000358581543 138,12.449000358581543 C138,12.449000358581543 138,-18.608999252319336 138,-18.608999252319336 C138,-21.259000778198242 135.85899353027344,-23.4060001373291 133.20899963378906,-23.4060001373291 C133.20899963378906,-23.4060001373291 -133.20899963378906,-23.4060001373291 -133.20899963378906,-23.4060001373291z"></path>
        </g>
      </g>
    </mask>
    <mask id="__lottie_element_89" mask-type="alpha">
      <g transform="matrix(1.25,0,0,1.2553199529647827,0,-0.16601943969726562)" opacity="1" style="display: block;">
        <g opacity="1" transform="matrix(1,0,0,1,138,23.4060001373291)">
          <path fill="rgb(251,251,251)" fill-opacity="1" d=" M-133.20899963378906,-23.4060001373291 C-135.85499572753906,-23.4060001373291 -138,-21.257999420166016 -138,-18.608999252319336 C-138,-18.608999252319336 -138,12.449000358581543 -138,12.449000358581543 C-138,12.449000358581543 -68.86699676513672,23.4060001373291 0.09200000017881393,23.4060001373291 C69.0510025024414,23.4060001373291 138,12.449000358581543 138,12.449000358581543 C138,12.449000358581543 138,-18.608999252319336 138,-18.608999252319336 C138,-21.259000778198242 135.85899353027344,-23.4060001373291 133.20899963378906,-23.4060001373291 C133.20899963378906,-23.4060001373291 -133.20899963378906,-23.4060001373291 -133.20899963378906,-23.4060001373291z"></path>
        </g>
      </g>
    </mask>
    <mask id="__lottie_element_95" mask-type="alpha">
      <g transform="matrix(1.25,0,0,1.2553199529647827,0,-0.16601943969726562)" opacity="1" style="display: block;">
        <g opacity="1" transform="matrix(1,0,0,1,138,23.4060001373291)">
          <path fill="rgb(251,251,251)" fill-opacity="1" d=" M-133.20899963378906,-23.4060001373291 C-135.85499572753906,-23.4060001373291 -138,-21.257999420166016 -138,-18.608999252319336 C-138,-18.608999252319336 -138,12.449000358581543 -138,12.449000358581543 C-138,12.449000358581543 -68.86699676513672,23.4060001373291 0.09200000017881393,23.4060001373291 C69.0510025024414,23.4060001373291 138,12.449000358581543 138,12.449000358581543 C138,12.449000358581543 138,-18.608999252319336 138,-18.608999252319336 C138,-21.259000778198242 135.85899353027344,-23.4060001373291 133.20899963378906,-23.4060001373291 C133.20899963378906,-23.4060001373291 -133.20899963378906,-23.4060001373291 -133.20899963378906,-23.4060001373291z"></path>
        </g>
      </g>
    </mask>
    <mask id="__lottie_element_101" mask-type="alpha">
      <g transform="matrix(1.25,0,0,1.2553199529647827,0,-0.16601943969726562)" opacity="1" style="display: block;">
        <g opacity="1" transform="matrix(1,0,0,1,138,23.4060001373291)">
          <path fill="rgb(251,251,251)" fill-opacity="1" d=" M-133.20899963378906,-23.4060001373291 C-135.85499572753906,-23.4060001373291 -138,-21.257999420166016 -138,-18.608999252319336 C-138,-18.608999252319336 -138,12.449000358581543 -138,12.449000358581543 C-138,12.449000358581543 -68.86699676513672,23.4060001373291 0.09200000017881393,23.4060001373291 C69.0510025024414,23.4060001373291 138,12.449000358581543 138,12.449000358581543 C138,12.449000358581543 138,-18.608999252319336 138,-18.608999252319336 C138,-21.259000778198242 135.85899353027344,-23.4060001373291 133.20899963378906,-23.4060001373291 C133.20899963378906,-23.4060001373291 -133.20899963378906,-23.4060001373291 -133.20899963378906,-23.4060001373291z"></path>
        </g>
      </g>
    </mask>
    <mask id="__lottie_element_107" mask-type="alpha">
      <g transform="matrix(1.25,0,0,1.2553199529647827,0,-0.16601943969726562)" opacity="1" style="display: block;">
        <g opacity="1" transform="matrix(1,0,0,1,138,23.4060001373291)">
          <path fill="rgb(251,251,251)" fill-opacity="1" d=" M-133.20899963378906,-23.4060001373291 C-135.85499572753906,-23.4060001373291 -138,-21.257999420166016 -138,-18.608999252319336 C-138,-18.608999252319336 -138,12.449000358581543 -138,12.449000358581543 C-138,12.449000358581543 -68.86699676513672,23.4060001373291 0.09200000017881393,23.4060001373291 C69.0510025024414,23.4060001373291 138,12.449000358581543 138,12.449000358581543 C138,12.449000358581543 138,-18.608999252319336 138,-18.608999252319336 C138,-21.259000778198242 135.85899353027344,-23.4060001373291 133.20899963378906,-23.4060001373291 C133.20899963378906,-23.4060001373291 -133.20899963378906,-23.4060001373291 -133.20899963378906,-23.4060001373291z"></path>
        </g>
      </g>
    </mask>
    <mask id="__lottie_element_113" mask-type="alpha">
      <g transform="matrix(1.25,0,0,1.2553199529647827,0,-0.16601943969726562)" opacity="1" style="display: block;">
        <g opacity="1" transform="matrix(1,0,0,1,138,23.4060001373291)">
          <path fill="rgb(251,251,251)" fill-opacity="1" d=" M-133.20899963378906,-23.4060001373291 C-135.85499572753906,-23.4060001373291 -138,-21.257999420166016 -138,-18.608999252319336 C-138,-18.608999252319336 -138,12.449000358581543 -138,12.449000358581543 C-138,12.449000358581543 -68.86699676513672,23.4060001373291 0.09200000017881393,23.4060001373291 C69.0510025024414,23.4060001373291 138,12.449000358581543 138,12.449000358581543 C138,12.449000358581543 138,-18.608999252319336 138,-18.608999252319336 C138,-21.259000778198242 135.85899353027344,-23.4060001373291 133.20899963378906,-23.4060001373291 C133.20899963378906,-23.4060001373291 -133.20899963378906,-23.4060001373291 -133.20899963378906,-23.4060001373291z"></path>
        </g>
      </g>
    </mask>
  </defs>
  <g clip-path="url(#__lottie_element_82)">
    <g mask="url(#__lottie_element_113)" style="display: block;">
      <g transform="matrix(1,0,0,1,0,0)" opacity="1">
        <rect width="345" height="59" fill="#6aaeff"></rect>
      </g>
    </g>
    <g mask="url(#__lottie_element_107)" style="display: block;">
      <g transform="matrix(1,0,0,1,296,28.5)" opacity="1">
        <g opacity="1" transform="matrix(1,0,0,1,30.864999771118164,16.172000885009766)">
          <path fill="rgb(69,163,146)" fill-opacity="1" d=" M-15.015999794006348,15.829000473022461 C-15.015999794006348,15.829000473022461 15.015999794006348,15.829000473022461 15.015999794006348,15.829000473022461 C15.015999794006348,15.829000473022461 0.0010000000474974513,-15.829000473022461 0.0010000000474974513,-15.829000473022461 C0.0010000000474974513,-15.829000473022461 -15.015999794006348,15.829000473022461 -15.015999794006348,15.829000473022461z"></path>
        </g>
        <g opacity="1" transform="matrix(1,0,0,1,56.20600128173828,24.027999877929688)">
          <path fill="rgb(69,163,146)" fill-opacity="1" d=" M-6.794000148773193,7.9730000495910645 C-6.794000148773193,7.9730000495910645 6.794000148773193,7.9730000495910645 6.794000148773193,7.9730000495910645 C6.794000148773193,7.9730000495910645 6.794000148773193,4.728000164031982 6.794000148773193,4.728000164031982 C6.794000148773193,4.728000164031982 0.7699999809265137,-7.9730000495910645 0.7699999809265137,-7.9730000495910645 C0.7699999809265137,-7.9730000495910645 -6.794000148773193,7.9730000495910645 -6.794000148773193,7.9730000495910645z"></path>
        </g>
        <g opacity="1" transform="matrix(1,0,0,1,7.177999973297119,25.10300064086914)">
          <path fill="rgb(69,163,146)" fill-opacity="1" d=" M-6.895999908447266,6.896999835968018 C-6.895999908447266,6.896999835968018 6.895999908447266,6.896999835968018 6.895999908447266,6.896999835968018 C6.895999908447266,6.896999835968018 0.0010000000474974513,-6.896999835968018 0.0010000000474974513,-6.896999835968018 C0.0010000000474974513,-6.896999835968018 -6.895999908447266,6.896999835968018 -6.895999908447266,6.896999835968018z"></path>
        </g>
      </g>
    </g>
    <g mask="url(#__lottie_element_101)" style="display: block;">
      <g transform="matrix(1,0,0,1,75.5,16.5)" opacity="1">
        <g opacity="1" transform="matrix(1,0,0,1,5.866000175476074,32.172000885009766)">
          <path fill="rgb(159,209,255)" fill-opacity="1" d=" M-5,-8.82699966430664 C-5,-8.82699966430664 -5,11.829000473022461 -5,11.829000473022461 C-5,11.829000473022461 5,11.829000473022461 5,11.829000473022461 C5,11.829000473022461 5,-11.829000473022461 5,-11.829000473022461 C5,-11.829000473022461 -5,-8.82699966430664 -5,-8.82699966430664z"></path>
        </g>
        <g opacity="1" transform="matrix(1,0,0,1,23.364999771118164,24.17099952697754)">
          <path fill="rgb(159,209,255)" fill-opacity="1" d=" M-5.499000072479248,19.82900047302246 C-5.499000072479248,19.82900047302246 5.499000072479248,19.82900047302246 5.499000072479248,19.82900047302246 C5.499000072479248,19.82900047302246 5.499000072479248,-19.82900047302246 5.499000072479248,-19.82900047302246 C5.499000072479248,-19.82900047302246 -5.499000072479248,-19.82900047302246 -5.499000072479248,-19.82900047302246 C-5.499000072479248,-19.82900047302246 -5.499000072479248,19.82900047302246 -5.499000072479248,19.82900047302246z"></path>
        </g>
        <g opacity="1" transform="matrix(1,0,0,1,23.364999771118164,4.171000003814697)">
          <path fill="rgb(159,209,255)" fill-opacity="1" d=" M-2.499000072479248,1.8289999961853027 C-2.499000072479248,1.8289999961853027 2.499000072479248,1.8289999961853027 2.499000072479248,1.8289999961853027 C2.499000072479248,1.8289999961853027 2.499000072479248,-1.8289999961853027 2.499000072479248,-1.8289999961853027 C2.499000072479248,-1.8289999961853027 -2.499000072479248,-1.8289999961853027 -2.499000072479248,-1.8289999961853027 C-2.499000072479248,-1.8289999961853027 -2.499000072479248,1.8289999961853027 -2.499000072479248,1.8289999961853027z"></path>
        </g>
        <g opacity="1" transform="matrix(1,0,0,1,23.364999771118164,2.1710000038146973)">
          <path fill="rgb(159,209,255)" fill-opacity="1" d=" M-0.5,1.8289999961853027 C-0.5,1.8289999961853027 0.5,1.8289999961853027 0.5,1.8289999961853027 C0.5,1.8289999961853027 0.5,-1.8289999961853027 0.5,-1.8289999961853027 C0.5,-1.8289999961853027 -0.5,-1.8289999961853027 -0.5,-1.8289999961853027 C-0.5,-1.8289999961853027 -0.5,1.8289999961853027 -0.5,1.8289999961853027z"></path>
        </g>
        <g opacity="1" transform="matrix(1,0,0,1,39.3650016784668,34.672000885009766)">
          <path fill="rgb(159,209,255)" fill-opacity="1" d=" M-4.5,9.32800006866455 C-4.5,9.32800006866455 4.5,9.32800006866455 4.5,9.32800006866455 C4.5,9.32800006866455 4.5,-8.32800006866455 4.5,-8.32800006866455 C4.5,-8.32800006866455 -4.5,-9.32800006866455 -4.5,-9.32800006866455 C-4.5,-9.32800006866455 -4.5,9.32800006866455 -4.5,9.32800006866455z"></path>
        </g>
      </g>
    </g>
    <g mask="url(#__lottie_element_95)" style="display: block;">
      <g transform="matrix(1,0,0,1,-6,17)" opacity="1">
        <g opacity="1" transform="matrix(1,0,0,1,15.366000175476074,13.843999862670898)">
          <path fill="rgb(255,255,255)" fill-opacity="1" d=" M-14.5,-0.0010000000474974513 C-14.5,3.5899999141693115 -8.008999824523926,6.5 0,6.5 C8.008000373840332,6.5 14.5,3.5899999141693115 14.5,-0.0010000000474974513 C14.5,-3.5910000801086426 8.008000373840332,-6.5 0,-6.5 C-8.008999824523926,-6.5 -14.5,-3.5910000801086426 -14.5,-0.0010000000474974513z"></path>
        </g>
        <g opacity="1" transform="matrix(1,0,0,1,26.42799949645996,16.10099983215332)">
          <path fill="rgb(255,255,255)" fill-opacity="1" d=" M-10.5,0.0010000000474974513 C-10.5,3.5910000801086426 -5.798999786376953,6.5 0,6.5 C5.798999786376953,6.5 10.5,3.5910000801086426 10.5,0.0010000000474974513 C10.5,-3.5899999141693115 5.798999786376953,-6.5 0,-6.5 C-5.798999786376953,-6.5 -10.5,-3.5899999141693115 -10.5,0.0010000000474974513z"></path>
        </g>
        <g opacity="1" transform="matrix(1,0,0,1,24.42799949645996,7.3429999351501465)">
          <path fill="rgb(255,255,255)" fill-opacity="1" d=" M-10.5,0.0010000000474974513 C-10.5,3.5899999141693115 -5.798999786376953,6.5 0,6.5 C5.798999786376953,6.5 10.5,3.5899999141693115 10.5,0.0010000000474974513 C10.5,-3.5899999141693115 5.798999786376953,-6.5 0,-6.5 C-5.798999786376953,-6.5 -10.5,-3.5899999141693115 -10.5,0.0010000000474974513z"></path>
        </g>
      </g>
    </g>
    <g mask="url(#__lottie_element_89)" style="display: block;">
      <g transform="matrix(1,0,0,1,275.5,9.5)" opacity="1">
        <g opacity="1" transform="matrix(1,0,0,1,15.366000175476074,13.843999862670898)">
          <path fill="rgb(255,255,255)" fill-opacity="1" d=" M-14.5,-0.0010000000474974513 C-14.5,3.5899999141693115 -8.008999824523926,6.5 0,6.5 C8.008000373840332,6.5 14.5,3.5899999141693115 14.5,-0.0010000000474974513 C14.5,-3.5910000801086426 8.008000373840332,-6.5 0,-6.5 C-8.008999824523926,-6.5 -14.5,-3.5910000801086426 -14.5,-0.0010000000474974513z"></path>
        </g>
        <g opacity="1" transform="matrix(1,0,0,1,26.42799949645996,16.10099983215332)">
          <path fill="rgb(255,255,255)" fill-opacity="1" d=" M-10.5,0.0010000000474974513 C-10.5,3.5910000801086426 -5.798999786376953,6.5 0,6.5 C5.798999786376953,6.5 10.5,3.5910000801086426 10.5,0.0010000000474974513 C10.5,-3.5899999141693115 5.798999786376953,-6.5 0,-6.5 C-5.798999786376953,-6.5 -10.5,-3.5899999141693115 -10.5,0.0010000000474974513z"></path>
        </g>
        <g opacity="1" transform="matrix(1,0,0,1,24.42799949645996,7.3429999351501465)">
          <path fill="rgb(255,255,255)" fill-opacity="1" d=" M-10.5,0.0010000000474974513 C-10.5,3.5899999141693115 -5.798999786376953,6.5 0,6.5 C5.798999786376953,6.5 10.5,3.5899999141693115 10.5,0.0010000000474974513 C10.5,-3.5899999141693115 5.798999786376953,-6.5 0,-6.5 C-5.798999786376953,-6.5 -10.5,-3.5899999141693115 -10.5,0.0010000000474974513z"></path>
        </g>
      </g>
    </g>
    <g mask="url(#__lottie_element_83)" style="display: block;">
      <g transform="matrix(0.9848471283912659,-0.17342472076416016,0.17342472076416016,0.9848471283912659,149.3832550048828,33.07258605957031)" opacity="1">
        <g opacity="1" transform="matrix(1,0,0,1,21.295000076293945,9.100000381469727)">
          <path fill="rgb(255,255,255)" fill-opacity="1" d=" M-16.56999969482422,-3.2939999103546143 C-16.56999969482422,-3.2939999103546143 -13.968999862670898,5.590000152587891 -13.968999862670898,5.590000152587891 C-13.968999862670898,5.590000152587891 -10.729999542236328,4.265999794006348 -10.729999542236328,4.265999794006348 C-10.729999542236328,4.265999794006348 -6.908999919891357,9.100000381469727 -6.908999919891357,9.100000381469727 C-6.908999919891357,9.100000381469727 21.29400062561035,-7.534999847412109 21.29400062561035,-7.534999847412109 C21.29400062561035,-7.534999847412109 -21.29400062561035,-9.100000381469727 -21.29400062561035,-9.100000381469727 C-21.29400062561035,-9.100000381469727 -16.56999969482422,-3.2939999103546143 -16.56999969482422,-3.2939999103546143z"></path>
        </g>
        <g opacity="1" transform="matrix(1,0,0,1,7.650000095367432,10.217000007629395)">
          <path fill="rgb(82,96,115)" fill-opacity="1" d=" M-0.31299999356269836,4.439000129699707 C-0.31299999356269836,4.439000129699707 2.921999931335449,3.121999979019165 2.921999931335449,3.121999979019165 C2.921999931335449,3.121999979019165 -2.921999931335449,-4.439000129699707 -2.921999931335449,-4.439000129699707 C-2.921999931335449,-4.439000129699707 -0.31299999356269836,4.439000129699707 -0.31299999356269836,4.439000129699707z"></path>
        </g>
        <g opacity="1" transform="matrix(1,0,0,1,23.645999908447266,8.107000350952148)">
          <path fill="rgb(0,111,244)" fill-opacity="1" d=" M-18.920000076293945,-2.318000078201294 C-18.920000076293945,-2.318000078201294 -16.31800079345703,6.564000129699707 -16.31800079345703,6.564000129699707 C-16.31800079345703,6.564000129699707 -14.475000381469727,3.434000015258789 -14.475000381469727,3.434000015258789 C-14.475000381469727,3.434000015258789 18.920000076293945,-6.564000129699707 18.920000076293945,-6.564000129699707 C18.920000076293945,-6.564000129699707 -18.920000076293945,-2.318000078201294 -18.920000076293945,-2.318000078201294z"></path>
        </g>
      </g>
    </g>
  </g>
</svg>
